<svg xmlns="http://www.w3.org/2000/svg" class="markmap mm-oa0r6o-3" style="width: 100%; height: 100%; -webkit-tap-highlight-color: rgba(0, 0, 0, 0);"><style>.markmap{--markmap-max-width: 9999px;--markmap-a-color: #0097e6;--markmap-a-hover-color: #00a8ff;--markmap-code-bg: #f0f0f0;--markmap-code-color: #555;--markmap-highlight-bg: #ffeaa7;--markmap-table-border: 1px solid currentColor;--markmap-font: 300 16px/20px sans-serif;--markmap-circle-open-bg: #fff;--markmap-text-color: #333;--markmap-highlight-node-bg: #ff02;font:var(--markmap-font);color:var(--markmap-text-color)}.markmap-link{fill:none}.markmap-node&gt;circle{cursor:pointer}.markmap-foreign{display:inline-block}.markmap-foreign p{margin:0}.markmap-foreign a{color:var(--markmap-a-color)}.markmap-foreign a:hover{color:var(--markmap-a-hover-color)}.markmap-foreign code{padding:.25em;font-size:calc(1em - 2px);color:var(--markmap-code-color);background-color:var(--markmap-code-bg);border-radius:2px}.markmap-foreign pre{margin:0}.markmap-foreign pre&gt;code{display:block}.markmap-foreign del{text-decoration:line-through}.markmap-foreign em{font-style:italic}.markmap-foreign strong{font-weight:700}.markmap-foreign mark{background:var(--markmap-highlight-bg)}.markmap-foreign table,.markmap-foreign th,.markmap-foreign td{border-collapse:collapse;border:var(--markmap-table-border)}.markmap-foreign img{display:inline-block}.markmap-foreign svg{fill:currentColor}.markmap-foreign&gt;div{width:var(--markmap-max-width);text-align:left}.markmap-foreign&gt;div&gt;div{display:inline-block}.markmap-highlight rect{fill:var(--markmap-highlight-node-bg)}.markmap-dark .markmap{--markmap-code-bg: #1a1b26;--markmap-code-color: #ddd;--markmap-circle-open-bg: #444;--markmap-text-color: #eee}</style><g transform="translate(75.58028616852147,289.5220588235294) scale(0.45310015898251194)"><path class="markmap-link" data-depth="3" data-path="1.2.3" d="M473,-516.062C513,-516.062,513,-584.187,553,-584.187" stroke-width="1.375" stroke="rgb(44, 160, 44)"/><path class="markmap-link" data-depth="3" data-path="1.2.4" d="M473,-516.062C513,-516.062,513,-556.812,553,-556.812" stroke-width="1.375" stroke="rgb(214, 39, 40)"/><path class="markmap-link" data-depth="3" data-path="1.2.5" d="M473,-516.062C513,-516.062,513,-529.437,553,-529.437" stroke-width="1.375" stroke="rgb(148, 103, 189)"/><path class="markmap-link" data-depth="3" data-path="1.2.6" d="M473,-516.062C513,-516.062,513,-502.062,553,-502.062" stroke-width="1.375" stroke="rgb(23, 190, 207)"/><path class="markmap-link" data-depth="3" data-path="1.2.7" d="M473,-516.062C513,-516.062,513,-474.687,553,-474.687" stroke-width="1.375" stroke="rgb(31, 119, 180)"/><path class="markmap-link" data-depth="3" data-path="1.2.8" d="M473,-516.062C513,-516.062,513,-447.312,553,-447.312" stroke-width="1.375" stroke="rgb(255, 127, 14)"/><path class="markmap-link" data-depth="3" data-path="1.9.10" d="M509,-360.5C549,-360.5,549,-414.937,589,-414.937" stroke-width="1.375" stroke="rgb(23, 190, 207)"/><path class="markmap-link" data-depth="3" data-path="1.9.11" d="M509,-360.5C549,-360.5,549,-387.562,589,-387.562" stroke-width="1.375" stroke="rgb(31, 119, 180)"/><path class="markmap-link" data-depth="3" data-path="1.9.12" d="M509,-360.5C549,-360.5,549,-360.187,589,-360.187" stroke-width="1.375" stroke="rgb(44, 160, 44)"/><path class="markmap-link" data-depth="3" data-path="1.9.13" d="M509,-360.5C549,-360.5,549,-332.812,589,-332.812" stroke-width="1.375" stroke="rgb(214, 39, 40)"/><path class="markmap-link" data-depth="3" data-path="1.9.14" d="M509,-360.5C549,-360.5,549,-305.437,589,-305.437" stroke-width="1.375" stroke="rgb(148, 103, 189)"/><path class="markmap-link" data-depth="3" data-path="1.15.16" d="M560,-218.625C600,-218.625,600,-273.062,640,-273.062" stroke-width="1.375" stroke="rgb(140, 86, 75)"/><path class="markmap-link" data-depth="3" data-path="1.15.17" d="M560,-218.625C600,-218.625,600,-245.687,640,-245.687" stroke-width="1.375" stroke="rgb(227, 119, 194)"/><path class="markmap-link" data-depth="3" data-path="1.15.18" d="M560,-218.625C600,-218.625,600,-218.312,640,-218.312" stroke-width="1.375" stroke="rgb(127, 127, 127)"/><path class="markmap-link" data-depth="3" data-path="1.15.19" d="M560,-218.625C600,-218.625,600,-190.937,640,-190.937" stroke-width="1.375" stroke="rgb(188, 189, 34)"/><path class="markmap-link" data-depth="3" data-path="1.15.20" d="M560,-218.625C600,-218.625,600,-163.562,640,-163.562" stroke-width="1.375" stroke="rgb(23, 190, 207)"/><path class="markmap-link" data-depth="3" data-path="1.21.22" d="M482,-90.437C522,-90.437,522,-131.187,562,-131.187" stroke-width="1.375" stroke="rgb(255, 127, 14)"/><path class="markmap-link" data-depth="3" data-path="1.21.23" d="M482,-90.437C522,-90.437,522,-103.812,562,-103.812" stroke-width="1.375" stroke="rgb(44, 160, 44)"/><path class="markmap-link" data-depth="3" data-path="1.21.24" d="M482,-90.437C522,-90.437,522,-76.437,562,-76.437" stroke-width="1.375" stroke="rgb(214, 39, 40)"/><path class="markmap-link" data-depth="3" data-path="1.21.25" d="M482,-90.437C522,-90.437,522,-49.062,562,-49.062" stroke-width="1.375" stroke="rgb(148, 103, 189)"/><path class="markmap-link" data-depth="4" data-path="1.28.29.30" d="M823,10C863,10,863,-16.781,903,-16.781" stroke-width="1.1875" stroke="rgb(23, 190, 207)"/><path class="markmap-link" data-depth="4" data-path="1.28.29.31" d="M823,10C863,10,863,10.406,903,10.406" stroke-width="1.1875" stroke="rgb(31, 119, 180)"/><path class="markmap-link" data-depth="4" data-path="1.28.29.32" d="M823,10C863,10,863,37.594,903,37.594" stroke-width="1.1875" stroke="rgb(255, 127, 14)"/><path class="markmap-link" data-depth="4" data-path="1.28.33.34" d="M758,96.563C798,96.563,798,69.781,838,69.781" stroke-width="1.1875" stroke="rgb(214, 39, 40)"/><path class="markmap-link" data-depth="4" data-path="1.28.33.35" d="M758,96.563C798,96.563,798,96.969,838,96.969" stroke-width="1.1875" stroke="rgb(148, 103, 189)"/><path class="markmap-link" data-depth="4" data-path="1.28.33.36" d="M758,96.563C798,96.563,798,124.156,838,124.156" stroke-width="1.1875" stroke="rgb(140, 86, 75)"/><path class="markmap-link" data-depth="3" data-path="1.28.29" d="M488,53.469C528,53.469,528,10,568,10" stroke-width="1.375" stroke="rgb(188, 189, 34)"/><path class="markmap-link" data-depth="3" data-path="1.28.33" d="M488,53.469C528,53.469,528,96.563,568,96.563" stroke-width="1.375" stroke="rgb(44, 160, 44)"/><path class="markmap-link" data-depth="3" data-path="1.37.38" d="M497,141.313C537,141.313,537,127.938,577,127.938" stroke-width="1.375" stroke="rgb(127, 127, 127)"/><path class="markmap-link" data-depth="3" data-path="1.37.39" d="M497,141.313C537,141.313,537,154.313,577,154.313" stroke-width="1.375" stroke="rgb(188, 189, 34)"/><path class="markmap-link" data-depth="3" data-path="1.40.41" d="M452,301.75C492,301.75,492,185.688,532,185.688" stroke-width="1.375" stroke="rgb(31, 119, 180)"/><path class="markmap-link" data-depth="3" data-path="1.40.42" d="M452,301.75C492,301.75,492,391.063,532,391.063" stroke-width="1.375" stroke="rgb(255, 127, 14)"/><path class="markmap-link" data-depth="3" data-path="1.40.43" d="M452,301.75C492,301.75,492,417.438,532,417.438" stroke-width="1.375" stroke="rgb(44, 160, 44)"/><path class="markmap-link" data-depth="3" data-path="1.44.45" d="M532,537.813C572,537.813,572,622.438,612,622.438" stroke-width="1.375" stroke="rgb(148, 103, 189)"/><path class="markmap-link" data-depth="3" data-path="1.44.46" d="M532,537.813C572,537.813,572,652.813,612,652.813" stroke-width="1.375" stroke="rgb(140, 86, 75)"/><path class="markmap-link" data-depth="2" data-path="1.2" d="M242,11.25C282,11.25,282,-516.062,322,-516.062" stroke-width="1.75" stroke="rgb(255, 127, 14)"/><path class="markmap-link" data-depth="2" data-path="1.9" d="M242,11.25C282,11.25,282,-360.5,322,-360.5" stroke-width="1.75" stroke="rgb(188, 189, 34)"/><path class="markmap-link" data-depth="2" data-path="1.15" d="M242,11.25C282,11.25,282,-218.625,322,-218.625" stroke-width="1.75" stroke="rgb(148, 103, 189)"/><path class="markmap-link" data-depth="2" data-path="1.21" d="M242,11.25C282,11.25,282,-90.437,322,-90.437" stroke-width="1.75" stroke="rgb(31, 119, 180)"/><path class="markmap-link" data-depth="2" data-path="1.26" d="M242,11.25C282,11.25,282,-11.677,322,-11.677" stroke-width="1.75" stroke="rgb(140, 86, 75)"/><path class="markmap-link" data-depth="2" data-path="1.27" d="M242,11.25C282,11.25,282,20.896,322,20.896" stroke-width="1.75" stroke="rgb(227, 119, 194)"/><path class="markmap-link" data-depth="2" data-path="1.28" d="M242,11.25C282,11.25,282,53.469,322,53.469" stroke-width="1.75" stroke="rgb(127, 127, 127)"/><path class="markmap-link" data-depth="2" data-path="1.37" d="M242,11.25C282,11.25,282,141.313,322,141.313" stroke-width="1.75" stroke="rgb(227, 119, 194)"/><path class="markmap-link" data-depth="2" data-path="1.40" d="M242,11.25C282,11.25,282,301.75,322,301.75" stroke-width="1.75" stroke="rgb(23, 190, 207)"/><path class="markmap-link" data-depth="2" data-path="1.44" d="M242,11.25C282,11.25,282,537.813,322,537.813" stroke-width="1.75" stroke="rgb(214, 39, 40)"/><g class="markmap-highlight"/><g data-depth="3" data-path="1.2.3" class="markmap-node" transform="translate(553, -605.875)"><line stroke="#2ca02c" stroke-width="1.375" x1="-1" x2="799" y1="21.6875" y2="21.6875"/><foreignObject class="markmap-foreign" x="8" y="0" style="opacity: 1;" width="781" height="21"><div xmlns="http://www.w3.org/1999/xhtml"><div xmlns="http://www.w3.org/1999/xhtml">🧮 <strong>Accounting &amp; Financial Automation</strong> — Streamlining workflows for accountants and finance professionals</div></div></foreignObject></g><g data-depth="3" data-path="1.2.4" class="markmap-node" transform="translate(553, -578.5)"><line stroke="#d62728" stroke-width="1.375" x1="-1" x2="740" y1="21.6875" y2="21.6875"/><foreignObject class="markmap-foreign" x="8" y="0" style="opacity: 1;" width="722" height="21"><div xmlns="http://www.w3.org/1999/xhtml"><div xmlns="http://www.w3.org/1999/xhtml">🔧 <strong>Chrome Extension Development</strong> — Building browser-based tools for productivity and accounting</div></div></foreignObject></g><g data-depth="3" data-path="1.2.5" class="markmap-node" transform="translate(553, -551.125)"><line stroke="#9467bd" stroke-width="1.375" x1="-1" x2="790" y1="21.6875" y2="21.6875"/><foreignObject class="markmap-foreign" x="8" y="0" style="opacity: 1;" width="772" height="21"><div xmlns="http://www.w3.org/1999/xhtml"><div xmlns="http://www.w3.org/1999/xhtml">💻 <strong>Chromebook &amp; Cloud Computing</strong> — Exploring lightweight computing solutions and educational content</div></div></foreignObject></g><g data-depth="3" data-path="1.2.6" class="markmap-node" transform="translate(553, -523.75)"><line stroke="#17becf" stroke-width="1.375" x1="-1" x2="881" y1="21.6875" y2="21.6875"/><foreignObject class="markmap-foreign" x="8" y="0" style="opacity: 1;" width="863" height="21"><div xmlns="http://www.w3.org/1999/xhtml"><div xmlns="http://www.w3.org/1999/xhtml">🌐 <strong>Local Server Projects</strong> — Creating multi-port servers for sharing content (music, video, messages, documents, images)</div></div></foreignObject></g><g data-depth="3" data-path="1.2.7" class="markmap-node" transform="translate(553, -496.375)"><line stroke="#1f77b4" stroke-width="1.375" x1="-1" x2="651" y1="21.6875" y2="21.6875"/><foreignObject class="markmap-foreign" x="8" y="0" style="opacity: 1;" width="633" height="21"><div xmlns="http://www.w3.org/1999/xhtml"><div xmlns="http://www.w3.org/1999/xhtml">📊 <strong>Excel Automation &amp; Data Processing</strong> — Building tools to simplify spreadsheet tasks</div></div></foreignObject></g><g data-depth="3" data-path="1.2.8" class="markmap-node" transform="translate(553, -469)"><line stroke="#ff7f0e" stroke-width="1.375" x1="-1" x2="828" y1="21.6875" y2="21.6875"/><foreignObject class="markmap-foreign" x="8" y="0" style="opacity: 1;" width="810" height="21"><div xmlns="http://www.w3.org/1999/xhtml"><div xmlns="http://www.w3.org/1999/xhtml">🎓 <strong>EdTech &amp; Open-Source Learning</strong> — Sharing knowledge about technology limitations and practical use cases</div></div></foreignObject></g><g data-depth="2" data-path="1.2" class="markmap-node" transform="translate(322, -536.9375)"><line stroke="#ff7f0e" stroke-width="1.75" x1="-1" x2="153" y1="20.875" y2="20.875"/><circle stroke-width="1.5" r="6" stroke="#ff7f0e" fill="var(--markmap-circle-open-bg)" cx="151" cy="20.875"/><foreignObject class="markmap-foreign" x="8" y="0" style="opacity: 1;" width="135" height="20"><div xmlns="http://www.w3.org/1999/xhtml"><div xmlns="http://www.w3.org/1999/xhtml">👀 I'm interested in</div></div></foreignObject></g><g data-depth="3" data-path="1.9.10" class="markmap-node" transform="translate(589, -436.625)"><line stroke="#17becf" stroke-width="1.375" x1="-1" x2="591" y1="21.6875" y2="21.6875"/><foreignObject class="markmap-foreign" x="8" y="0" style="opacity: 1;" width="573" height="21"><div xmlns="http://www.w3.org/1999/xhtml"><div xmlns="http://www.w3.org/1999/xhtml">🛠️ <strong>Chrome Extension APIs</strong> — Browser actions, content scripts, and manifest v3</div></div></foreignObject></g><g data-depth="3" data-path="1.9.11" class="markmap-node" transform="translate(589, -409.25)"><line stroke="#1f77b4" stroke-width="1.375" x1="-1" x2="728" y1="21.6875" y2="21.6875"/><foreignObject class="markmap-foreign" x="8" y="0" style="opacity: 1;" width="710" height="21"><div xmlns="http://www.w3.org/1999/xhtml"><div xmlns="http://www.w3.org/1999/xhtml">📜 <strong>JavaScript &amp; Modern Web Development</strong> — ES6+, async programming, and DOM manipulation</div></div></foreignObject></g><g data-depth="3" data-path="1.9.12" class="markmap-node" transform="translate(589, -381.875)"><line stroke="#2ca02c" stroke-width="1.375" x1="-1" x2="693" y1="21.6875" y2="21.6875"/><foreignObject class="markmap-foreign" x="8" y="0" style="opacity: 1;" width="675" height="21"><div xmlns="http://www.w3.org/1999/xhtml"><div xmlns="http://www.w3.org/1999/xhtml">🐍 <strong>Python for Automation</strong> — Scripting for accounting workflows and local server development</div></div></foreignObject></g><g data-depth="3" data-path="1.9.13" class="markmap-node" transform="translate(589, -354.5)"><line stroke="#d62728" stroke-width="1.375" x1="-1" x2="669" y1="21.6875" y2="21.6875"/><foreignObject class="markmap-foreign" x="8" y="0" style="opacity: 1;" width="651" height="21"><div xmlns="http://www.w3.org/1999/xhtml"><div xmlns="http://www.w3.org/1999/xhtml">🗄️ <strong>Multi-Port Server Architecture</strong> — Building lightweight servers for file and media sharing</div></div></foreignObject></g><g data-depth="3" data-path="1.9.14" class="markmap-node" transform="translate(589, -327.125)"><line stroke="#9467bd" stroke-width="1.375" x1="-1" x2="724" y1="21.6875" y2="21.6875"/><foreignObject class="markmap-foreign" x="8" y="0" style="opacity: 1;" width="706" height="21"><div xmlns="http://www.w3.org/1999/xhtml"><div xmlns="http://www.w3.org/1999/xhtml">📝 <strong>Technical Writing</strong> — Creating educational content about Chromebook use cases and limitations</div></div></foreignObject></g><g data-depth="2" data-path="1.9" class="markmap-node" transform="translate(322, -381.375)"><line stroke="#bcbd22" stroke-width="1.75" x1="-1" x2="189" y1="20.875" y2="20.875"/><circle stroke-width="1.5" r="6" stroke="#bcbd22" fill="var(--markmap-circle-open-bg)" cx="187" cy="20.875"/><foreignObject class="markmap-foreign" x="8" y="0" style="opacity: 1;" width="171" height="20"><div xmlns="http://www.w3.org/1999/xhtml"><div xmlns="http://www.w3.org/1999/xhtml">🌱 I'm currently learning</div></div></foreignObject></g><g data-depth="3" data-path="1.15.16" class="markmap-node" transform="translate(640, -294.75)"><line stroke="#8c564b" stroke-width="1.375" x1="-1" x2="774" y1="21.6875" y2="21.6875"/><foreignObject class="markmap-foreign" x="8" y="0" style="opacity: 1;" width="756" height="21"><div xmlns="http://www.w3.org/1999/xhtml"><div xmlns="http://www.w3.org/1999/xhtml">🧾 <strong>Accounting Tools &amp; Chrome Extensions</strong> — Open-source projects that help accountants work smarter</div></div></foreignObject></g><g data-depth="3" data-path="1.15.17" class="markmap-node" transform="translate(640, -267.375)"><line stroke="#e377c2" stroke-width="1.375" x1="-1" x2="760" y1="21.6875" y2="21.6875"/><foreignObject class="markmap-foreign" x="8" y="0" style="opacity: 1;" width="742" height="21"><div xmlns="http://www.w3.org/1999/xhtml"><div xmlns="http://www.w3.org/1999/xhtml">📂 <strong>Local Content Sharing Platforms</strong> — Multi-language server projects for document and media sharing</div></div></foreignObject></g><g data-depth="3" data-path="1.15.18" class="markmap-node" transform="translate(640, -240)"><line stroke="#7f7f7f" stroke-width="1.375" x1="-1" x2="714" y1="21.6875" y2="21.6875"/><foreignObject class="markmap-foreign" x="8" y="0" style="opacity: 1;" width="696" height="21"><div xmlns="http://www.w3.org/1999/xhtml"><div xmlns="http://www.w3.org/1999/xhtml">📚 <strong>Educational Content</strong> — Tutorials and guides about Chromebook development and cloud tools</div></div></foreignObject></g><g data-depth="3" data-path="1.15.19" class="markmap-node" transform="translate(640, -212.625)"><line stroke="#bcbd22" stroke-width="1.375" x1="-1" x2="603" y1="21.6875" y2="21.6875"/><foreignObject class="markmap-foreign" x="8" y="0" style="opacity: 1;" width="585" height="21"><div xmlns="http://www.w3.org/1999/xhtml"><div xmlns="http://www.w3.org/1999/xhtml">🔄 <strong>Excel &amp; Data Automation</strong> — Projects that bridge accounting and programming</div></div></foreignObject></g><g data-depth="3" data-path="1.15.20" class="markmap-node" transform="translate(640, -185.25)"><line stroke="#17becf" stroke-width="1.375" x1="-1" x2="698" y1="21.6875" y2="21.6875"/><foreignObject class="markmap-foreign" x="8" y="0" style="opacity: 1;" width="680" height="21"><div xmlns="http://www.w3.org/1999/xhtml"><div xmlns="http://www.w3.org/1999/xhtml">🌍 <strong>Open-Source Financial Tools</strong> — Community-driven solutions for small business accounting</div></div></foreignObject></g><g data-depth="2" data-path="1.15" class="markmap-node" transform="translate(322, -239.5)"><line stroke="#9467bd" stroke-width="1.75" x1="-1" x2="240" y1="20.875" y2="20.875"/><circle stroke-width="1.5" r="6" stroke="#9467bd" fill="var(--markmap-circle-open-bg)" cx="238" cy="20.875"/><foreignObject class="markmap-foreign" x="8" y="0" style="opacity: 1;" width="222" height="20"><div xmlns="http://www.w3.org/1999/xhtml"><div xmlns="http://www.w3.org/1999/xhtml">💞️ I'm looking to collaborate on</div></div></foreignObject></g><g data-depth="3" data-path="1.21.22" class="markmap-node" transform="translate(562, -152.875)"><line stroke="#ff7f0e" stroke-width="1.375" x1="-1" x2="512" y1="21.6875" y2="21.6875"/><foreignObject class="markmap-foreign" x="8" y="0" style="opacity: 1;" width="494" height="21"><div xmlns="http://www.w3.org/1999/xhtml"><div xmlns="http://www.w3.org/1999/xhtml">📧 <strong>Email:</strong> [your-email@example.com] <em>(replace with your actual email)</em></div></div></foreignObject></g><g data-depth="3" data-path="1.21.23" class="markmap-node" transform="translate(562, -125.5)"><line stroke="#2ca02c" stroke-width="1.375" x1="-1" x2="553" y1="21.6875" y2="21.6875"/><foreignObject class="markmap-foreign" x="8" y="0" style="opacity: 1;" width="535" height="21"><div xmlns="http://www.w3.org/1999/xhtml"><div xmlns="http://www.w3.org/1999/xhtml">💼 <strong>LinkedIn:</strong> [linkedin.com/in/your-profile] <em>(replace with your LinkedIn URL)</em></div></div></foreignObject></g><g data-depth="3" data-path="1.21.24" class="markmap-node" transform="translate(562, -98.125)"><line stroke="#d62728" stroke-width="1.375" x1="-1" x2="443" y1="21.6875" y2="21.6875"/><foreignObject class="markmap-foreign" x="8" y="0" style="opacity: 1;" width="425" height="21"><div xmlns="http://www.w3.org/1999/xhtml"><div xmlns="http://www.w3.org/1999/xhtml">🐦 <strong>Twitter/X:</strong> [@yourhandle] <em>(optional — replace or remove)</em></div></div></foreignObject></g><g data-depth="3" data-path="1.21.25" class="markmap-node" transform="translate(562, -70.75)"><line stroke="#9467bd" stroke-width="1.375" x1="-1" x2="508" y1="21.6875" y2="21.6875"/><foreignObject class="markmap-foreign" x="8" y="0" style="opacity: 1;" width="490" height="21"><div xmlns="http://www.w3.org/1999/xhtml"><div xmlns="http://www.w3.org/1999/xhtml">🌐 <strong>Website/Blog:</strong> [your-website.com] <em>(optional — replace or remove)</em></div></div></foreignObject></g><g data-depth="2" data-path="1.21" class="markmap-node" transform="translate(322, -111.3125)"><line stroke="#1f77b4" stroke-width="1.75" x1="-1" x2="162" y1="20.875" y2="20.875"/><circle stroke-width="1.5" r="6" stroke="#1f77b4" fill="var(--markmap-circle-open-bg)" cx="160" cy="20.875"/><foreignObject class="markmap-foreign" x="8" y="0" style="opacity: 1;" width="144" height="20"><div xmlns="http://www.w3.org/1999/xhtml"><div xmlns="http://www.w3.org/1999/xhtml">📫 How to reach me</div></div></foreignObject></g><g data-depth="2" data-path="1.26" class="markmap-node" transform="translate(322, -32.55208206176758)"><line stroke="#8c564b" stroke-width="1.75" x1="-1" x2="167" y1="20.875" y2="20.875"/><foreignObject class="markmap-foreign" x="8" y="0" style="opacity: 1;" width="149" height="20"><div xmlns="http://www.w3.org/1999/xhtml"><div xmlns="http://www.w3.org/1999/xhtml">😄 Pronouns: he/him</div></div></foreignObject></g><g data-depth="2" data-path="1.27" class="markmap-node" transform="translate(322, 0.0208333358168602)"><line stroke="#e377c2" stroke-width="1.75" x1="-1" x2="99" y1="20.875" y2="20.875"/><foreignObject class="markmap-foreign" x="8" y="0" style="opacity: 1;" width="81" height="20"><div xmlns="http://www.w3.org/1999/xhtml"><div xmlns="http://www.w3.org/1999/xhtml">⚡ Fun fact</div></div></foreignObject></g><g data-depth="4" data-path="1.28.29.30" class="markmap-node" transform="translate(903, -38.375)"><line stroke="#17becf" stroke-width="1.1875" x1="-1" x2="212" y1="21.59375" y2="21.59375"/><foreignObject class="markmap-foreign" x="8" y="0" style="opacity: 1;" width="194" height="21"><div xmlns="http://www.w3.org/1999/xhtml"><div xmlns="http://www.w3.org/1999/xhtml"><strong>Status:</strong> 🚧 In Development</div></div></foreignObject></g><g data-depth="4" data-path="1.28.29.31" class="markmap-node" transform="translate(903, -11.1875)"><line stroke="#1f77b4" stroke-width="1.1875" x1="-1" x2="406" y1="21.59375" y2="21.59375"/><foreignObject class="markmap-foreign" x="8" y="0" style="opacity: 1;" width="388" height="21"><div xmlns="http://www.w3.org/1999/xhtml"><div xmlns="http://www.w3.org/1999/xhtml"><strong>Tech:</strong> JavaScript, Chrome Extension APIs, HTML/CSS</div></div></foreignObject></g><g data-depth="4" data-path="1.28.29.32" class="markmap-node" transform="translate(903, 16)"><line stroke="#ff7f0e" stroke-width="1.1875" x1="-1" x2="515" y1="21.59375" y2="21.59375"/><foreignObject class="markmap-foreign" x="8" y="0" style="opacity: 1;" width="497" height="21"><div xmlns="http://www.w3.org/1999/xhtml"><div xmlns="http://www.w3.org/1999/xhtml"><strong>Repo:</strong> <a href="https://github.com/rkmconsultance">rkmconsultance/accounting-extension</a> <em>(update link when ready)</em></div></div></foreignObject></g><g data-depth="3" data-path="1.28.29" class="markmap-node" transform="translate(568, -10.6875)"><line stroke="#bcbd22" stroke-width="1.375" x1="-1" x2="257" y1="20.6875" y2="20.6875"/><circle stroke-width="1.5" r="6" stroke="#bcbd22" fill="var(--markmap-circle-open-bg)" cx="255" cy="20.6875"/><foreignObject class="markmap-foreign" x="8" y="0" style="opacity: 1;" width="239" height="20"><div xmlns="http://www.w3.org/1999/xhtml"><div xmlns="http://www.w3.org/1999/xhtml">🧮 Accounting Chrome Extension</div></div></foreignObject></g><g data-depth="4" data-path="1.28.33.34" class="markmap-node" transform="translate(838, 48.1875)"><line stroke="#d62728" stroke-width="1.1875" x1="-1" x2="212" y1="21.59375" y2="21.59375"/><foreignObject class="markmap-foreign" x="8" y="0" style="opacity: 1;" width="194" height="21"><div xmlns="http://www.w3.org/1999/xhtml"><div xmlns="http://www.w3.org/1999/xhtml"><strong>Status:</strong> 🚧 In Development</div></div></foreignObject></g><g data-depth="4" data-path="1.28.33.35" class="markmap-node" transform="translate(838, 75.375)"><line stroke="#9467bd" stroke-width="1.1875" x1="-1" x2="348" y1="21.59375" y2="21.59375"/><foreignObject class="markmap-foreign" x="8" y="0" style="opacity: 1;" width="330" height="21"><div xmlns="http://www.w3.org/1999/xhtml"><div xmlns="http://www.w3.org/1999/xhtml"><strong>Tech:</strong> Python, Node.js, Multi-language support</div></div></foreignObject></g><g data-depth="4" data-path="1.28.33.36" class="markmap-node" transform="translate(838, 102.5625)"><line stroke="#8c564b" stroke-width="1.1875" x1="-1" x2="424" y1="21.59375" y2="21.59375"/><foreignObject class="markmap-foreign" x="8" y="0" style="opacity: 1;" width="406" height="21"><div xmlns="http://www.w3.org/1999/xhtml"><div xmlns="http://www.w3.org/1999/xhtml"><strong>Features:</strong> Excel file samples, cross-platform compatibility</div></div></foreignObject></g><g data-depth="3" data-path="1.28.33" class="markmap-node" transform="translate(568, 75.875)"><line stroke="#2ca02c" stroke-width="1.375" x1="-1" x2="192" y1="20.6875" y2="20.6875"/><circle stroke-width="1.5" r="6" stroke="#2ca02c" fill="var(--markmap-circle-open-bg)" cx="190" cy="20.6875"/><foreignObject class="markmap-foreign" x="8" y="0" style="opacity: 1;" width="174" height="20"><div xmlns="http://www.w3.org/1999/xhtml"><div xmlns="http://www.w3.org/1999/xhtml">🌐 Local Content Server</div></div></foreignObject></g><g data-depth="2" data-path="1.28" class="markmap-node" transform="translate(322, 32.59375)"><line stroke="#7f7f7f" stroke-width="1.75" x1="-1" x2="168" y1="20.875" y2="20.875"/><circle stroke-width="1.5" r="6" stroke="#7f7f7f" fill="var(--markmap-circle-open-bg)" cx="166" cy="20.875"/><foreignObject class="markmap-foreign" x="8" y="0" style="opacity: 1;" width="150" height="20"><div xmlns="http://www.w3.org/1999/xhtml"><div xmlns="http://www.w3.org/1999/xhtml">🚀 Featured Projects</div></div></foreignObject></g><g data-depth="3" data-path="1.37.38" class="markmap-node" transform="translate(577, 107.25)"><line stroke="#7f7f7f" stroke-width="1.375" x1="-1" x2="98" y1="20.6875" y2="20.6875"/><foreignObject class="markmap-foreign" x="8" y="0" style="opacity: 1;" width="80" height="20"><div xmlns="http://www.w3.org/1999/xhtml"><div xmlns="http://www.w3.org/1999/xhtml">Languages</div></div></foreignObject></g><g data-depth="3" data-path="1.37.39" class="markmap-node" transform="translate(577, 133.625)"><line stroke="#bcbd22" stroke-width="1.375" x1="-1" x2="142" y1="20.6875" y2="20.6875"/><foreignObject class="markmap-foreign" x="8" y="0" style="opacity: 1;" width="124" height="20"><div xmlns="http://www.w3.org/1999/xhtml"><div xmlns="http://www.w3.org/1999/xhtml">Tools &amp; Platforms</div></div></foreignObject></g><g data-depth="2" data-path="1.37" class="markmap-node" transform="translate(322, 120.4375)"><line stroke="#e377c2" stroke-width="1.75" x1="-1" x2="177" y1="20.875" y2="20.875"/><circle stroke-width="1.5" r="6" stroke="#e377c2" fill="var(--markmap-circle-open-bg)" cx="175" cy="20.875"/><foreignObject class="markmap-foreign" x="8" y="0" style="opacity: 1;" width="159" height="20"><div xmlns="http://www.w3.org/1999/xhtml"><div xmlns="http://www.w3.org/1999/xhtml">🛠️ Tech Stack &amp; Tools</div></div></foreignObject></g><g data-depth="3" data-path="1.40.41" class="markmap-node" transform="translate(532, 165)"><line stroke="#1f77b4" stroke-width="1.375" x1="-1" x2="2" y1="20.6875" y2="20.6875"/><foreignObject class="markmap-foreign" x="8" y="0" style="opacity: 1;" width="0" height="20"><div xmlns="http://www.w3.org/1999/xhtml"><div xmlns="http://www.w3.org/1999/xhtml"><img src="https://github-readme-stats.vercel.app/api?username=rkmconsultance&amp;show_icons=true&amp;theme=default" alt="Richard's GitHub Stats" /></div></div></foreignObject></g><g data-depth="3" data-path="1.40.42" class="markmap-node" transform="translate(532, 191.375)"><line stroke="#ff7f0e" stroke-width="1.375" x1="-1" x2="513" y1="199.6875" y2="199.6875"/><foreignObject class="markmap-foreign" x="8" y="0" style="opacity: 1;" width="495" height="199"><div xmlns="http://www.w3.org/1999/xhtml"><div xmlns="http://www.w3.org/1999/xhtml"><img src="https://github-readme-streak-stats.herokuapp.com/?user=rkmconsultance" alt="GitHub Streak" /></div></div></foreignObject></g><g data-depth="3" data-path="1.40.43" class="markmap-node" transform="translate(532, 396.75)"><line stroke="#2ca02c" stroke-width="1.375" x1="-1" x2="2" y1="20.6875" y2="20.6875"/><foreignObject class="markmap-foreign" x="8" y="0" style="opacity: 1;" width="0" height="20"><div xmlns="http://www.w3.org/1999/xhtml"><div xmlns="http://www.w3.org/1999/xhtml"><img src="https://github-readme-stats.vercel.app/api/top-langs/?username=rkmconsultance&amp;layout=compact" alt="Top Languages" /></div></div></foreignObject></g><g data-depth="2" data-path="1.40" class="markmap-node" transform="translate(322, 280.875)"><line stroke="#17becf" stroke-width="1.75" x1="-1" x2="132" y1="20.875" y2="20.875"/><circle stroke-width="1.5" r="6" stroke="#17becf" fill="var(--markmap-circle-open-bg)" cx="130" cy="20.875"/><foreignObject class="markmap-foreign" x="8" y="0" style="opacity: 1;" width="114" height="20"><div xmlns="http://www.w3.org/1999/xhtml"><div xmlns="http://www.w3.org/1999/xhtml">📊 GitHub Stats</div></div></foreignObject></g><g data-depth="3" data-path="1.44.45" class="markmap-node" transform="translate(612, 401.75)"><line stroke="#9467bd" stroke-width="1.375" x1="-1" x2="729" y1="220.6875" y2="220.6875"/><foreignObject class="markmap-foreign" x="8" y="0" style="opacity: 1;" width="711" height="220"><div xmlns="http://www.w3.org/1999/xhtml"><div xmlns="http://www.w3.org/1999/xhtml"><table data-lines="98,109">
<thead data-lines="98,99">
<tr data-lines="98,99">
<th>Resource</th>
<th>Link</th>
<th>Purpose</th>
</tr>
</thead>
<tbody data-lines="100,109">
<tr data-lines="100,101">
<td><strong>GitHub Profile README Docs</strong></td>
<td><a href="https://docs.github.com/en/account-and-profile/how-tos/profile-customization/managing-your-profile-readme">docs.github.com</a></td>
<td>Official guide</td>
</tr>
<tr data-lines="101,102">
<td><strong>GPRM Generator</strong></td>
<td><a href="https://gprm.itsvg.in/">gprm.itsvg.in</a></td>
<td>README generator</td>
</tr>
<tr data-lines="102,103">
<td><strong>GitHub ReadMe Stats</strong></td>
<td><a href="https://github.com/anuraghazra/github-readme-stats">anuraghazra/github-readme-stats</a></td>
<td>Dynamic stats cards</td>
</tr>
<tr data-lines="103,104">
<td><strong>GitHub Streak Stats</strong></td>
<td><a href="https://github.com/DenverCoder1/github-readme-streak-stats">DenverCoder1/github-readme-streak-stats</a></td>
<td>Contribution streaks</td>
</tr>
<tr data-lines="104,105">
<td><strong>Shields.io</strong></td>
<td><a href="https://shields.io/">shields.io</a></td>
<td>Custom badges</td>
</tr>
<tr data-lines="105,106">
<td><strong>Emoji Cheat Sheet</strong></td>
<td><a href="https://github.com/ikatyang/emoji-cheat-sheet">ikatyang/emoji-cheat-sheet</a></td>
<td>GitHub emojis</td>
</tr>
<tr data-lines="106,107">
<td><strong>Awesome Profile READMEs</strong></td>
<td><a href="https://github.com/abhisheknaiidu/awesome-github-profile-readme">abhisheknaiidu/awesome-github-profile-readme</a></td>
<td>Inspiration gallery</td>
</tr>
<tr data-lines="107,108">
<td><strong>Capsule Render</strong></td>
<td><a href="https://github.com/kyechan99/capsule-render">kyechan99/capsule-render</a></td>
<td>Animated headers</td>
</tr>
<tr data-lines="108,109">
<td><strong>Typing SVG</strong></td>
<td><a href="https://github.com/DenverCoder1/readme-typing-svg">DenverCoder1/readme-typing-svg</a></td>
<td>Animated text</td>
</tr>
</tbody>
</table></div></div></foreignObject></g><g data-depth="3" data-path="1.44.46" class="markmap-node" transform="translate(612, 628.125)"><line stroke="#8c564b" stroke-width="1.375" x1="-1" x2="85" y1="24.6875" y2="24.6875"/><foreignObject class="markmap-foreign" x="8" y="0" style="opacity: 1;" width="67" height="24"><div xmlns="http://www.w3.org/1999/xhtml"><div xmlns="http://www.w3.org/1999/xhtml"><img src="https://visitor-badge.laobi.icu/badge?page_id=rkmconsultance.rkmconsultance" alt="Visitor Badge" /></div></div></foreignObject></g><g data-depth="2" data-path="1.44" class="markmap-node" transform="translate(322, 516.9375)"><line stroke="#d62728" stroke-width="1.75" x1="-1" x2="212" y1="20.875" y2="20.875"/><circle stroke-width="1.5" r="6" stroke="#d62728" fill="var(--markmap-circle-open-bg)" cx="210" cy="20.875"/><foreignObject class="markmap-foreign" x="8" y="0" style="opacity: 1;" width="194" height="20"><div xmlns="http://www.w3.org/1999/xhtml"><div xmlns="http://www.w3.org/1999/xhtml">📚 Resources &amp; Inspiration</div></div></foreignObject></g><g data-depth="1" data-path="1" class="markmap-node" transform="translate(0, -10)"><line stroke="#1f77b4" stroke-width="2.5" x1="-1" x2="244" y1="21.25" y2="21.25"/><circle stroke-width="1.5" r="6" stroke="#1f77b4" fill="var(--markmap-circle-open-bg)" cx="242" cy="21.25"/><foreignObject class="markmap-foreign" x="8" y="0" style="opacity: 1;" width="226" height="20"><div xmlns="http://www.w3.org/1999/xhtml"><div xmlns="http://www.w3.org/1999/xhtml">Hi there, I'm Richard Muhoro 👋</div></div></foreignObject></g></g></svg>